# xmcd
#
# Track frame offsets:
#	150
#	14904
#	28374
#	40793
#	54297
#	65773
#	79743
#	91954
#	103067
#	115999
#
# Disc length: 1700 seconds
# Revision: 1
# Processed by: cddbd v1.5.2PL0 Copyright (c) Steve Scherf et al.
# Submitted via: dBpowerAMP V12.0
#
DISCID=8706a20a
DTITLE=Glen Campbell - American Music Legends
DYEAR=2006
DGENRE=Country
TTITLE0=Rhinestone Cowboy
TTITLE1=Gentle on My Mind
TTITLE2=By the Time I Get to Phoenix
TTITLE3=Southern Nights
TTITLE4=True Grit
TTITLE5=Wichita Lineman
TTITLE6=Galveston
TTITLE7=It's Only Make Believe
TTITLE8=Classical Gas (Live)
TTITLE9=Dreams of the Everyday Housewife
EXTD=
EXTT0=
EXTT1=
EXTT2=
EXTT3=
EXTT4=
EXTT5=
EXTT6=
EXTT7=
EXTT8=
EXTT9=
PLAYORDER=
